<svg xmlns="http://www.w3.org/2000/svg" xmlns:xlink="http://www.w3.org/1999/xlink" width="500" zoomAndPan="magnify" viewBox="0 0 375 374.999991" height="500" preserveAspectRatio="xMidYMid meet" version="1.2"><defs><clipPath id="6f2801cc19"><path d="M 68.746094 72.921875 L 298.667969 72.921875 L 298.667969 302.84375 L 68.746094 302.84375 Z M 68.746094 72.921875 "/></clipPath><clipPath id="e31e261039"><path d="M 183.707031 72.921875 C 120.214844 72.921875 68.746094 124.390625 68.746094 187.882812 C 68.746094 251.375 120.214844 302.84375 183.707031 302.84375 C 247.199219 302.84375 298.667969 251.375 298.667969 187.882812 C 298.667969 124.390625 247.199219 72.921875 183.707031 72.921875 Z M 183.707031 72.921875 "/></clipPath></defs><g id="60e162c143"><rect x="0" width="375" y="0" height="374.999991" style="fill:#ffffff;fill-opacity:1;stroke:none;"/><rect x="0" width="375" y="0" height="374.999991" style="fill:#000000;fill-opacity:1;stroke:none;"/><g clip-rule="nonzero" clip-path="url(#6f2801cc19)"><g clip-rule="nonzero" clip-path="url(#e31e261039)"><path style=" stroke:none;fill-rule:nonzero;fill:#e1e1e1;fill-opacity:1;" d="M 68.746094 72.921875 L 298.667969 72.921875 L 298.667969 302.84375 L 68.746094 302.84375 Z M 68.746094 72.921875 "/></g></g><g style="fill:#000000;fill-opacity:1;"><g transform="translate(143.087412, 267.133319)"><path style="stroke:none" d="M -15.875 -87.96875 C -12.8125 -96.96875 -7.675781 -103.160156 -0.46875 -106.546875 C 6.726562 -109.941406 19.484375 -111.640625 37.796875 -111.640625 C 41.609375 -111.640625 51.238281 -111.476562 66.6875 -111.15625 C 77.914062 -110.84375 87.816406 -108.410156 96.390625 -103.859375 C 104.960938 -99.304688 111.65625 -92.875 116.46875 -84.5625 C 121.289062 -76.25 123.703125 -66.585938 123.703125 -55.578125 C 123.703125 -38.953125 118.4375 -25.53125 107.90625 -15.3125 C 97.375 -5.101562 83.632812 0 66.6875 0 L 12.859375 0 L 13.015625 -1.59375 L 14.921875 -1.59375 C 17.566406 -1.59375 19.84375 -2.460938 21.75 -4.203125 C 23.65625 -5.953125 24.769531 -8.097656 25.09375 -10.640625 L 25.09375 -106.390625 C 11.851562 -106.078125 2.484375 -104.015625 -3.015625 -100.203125 C -5.867188 -98.191406 -8.035156 -96.257812 -9.515625 -94.40625 C -11.003906 -92.550781 -12.546875 -90.195312 -14.140625 -87.34375 Z M 35.40625 -106.390625 L 35.40625 -4.765625 L 66.6875 -4.765625 C 80.132812 -4.765625 91.015625 -9.421875 99.328125 -18.734375 C 107.640625 -28.054688 111.796875 -40.335938 111.796875 -55.578125 C 111.796875 -65.640625 109.914062 -74.503906 106.15625 -82.171875 C 102.394531 -89.847656 97.097656 -95.800781 90.265625 -100.03125 C 83.441406 -104.269531 75.582031 -106.390625 66.6875 -106.390625 Z M 35.40625 -106.390625 "/></g></g><g style="fill:#000000;fill-opacity:1;"><g transform="translate(104.595401, 235.88332)"><path style="stroke:none" d="M -9.21875 -79.5625 C -12.5 -83.476562 -14.140625 -87.367188 -14.140625 -91.234375 C -14.140625 -95.097656 -13.238281 -98.429688 -11.4375 -101.234375 C -9.632812 -104.035156 -6.722656 -106.414062 -2.703125 -108.375 C 1.316406 -110.332031 5.867188 -111.3125 10.953125 -111.3125 L 76.0625 -111.3125 C 79.34375 -111.3125 82.96875 -111.628906 86.9375 -112.265625 C 90.90625 -112.898438 93.6875 -113.535156 95.28125 -114.171875 L 95.28125 -94.171875 L 93.6875 -94.328125 L 93.6875 -97.03125 C 93.6875 -99.570312 92.785156 -101.765625 90.984375 -103.609375 C 89.179688 -105.460938 87.066406 -106.441406 84.640625 -106.546875 L 54.46875 -106.546875 L 54.46875 -11.4375 C 54.570312 -7.625 56.265625 -4.765625 59.546875 -2.859375 C 61.128906 -2.015625 62.820312 -1.59375 64.625 -1.59375 L 66.6875 -1.59375 L 66.6875 0 L 31.921875 0 L 31.921875 -1.59375 L 33.984375 -1.59375 C 36.734375 -1.59375 39.085938 -2.539062 41.046875 -4.4375 C 43.003906 -6.34375 44.035156 -8.625 44.140625 -11.28125 L 44.140625 -106.546875 L 10.953125 -106.546875 C 2.484375 -106.546875 -3.65625 -103.847656 -7.46875 -98.453125 C -9.476562 -95.703125 -10.484375 -92.816406 -10.484375 -89.796875 C -10.484375 -86.785156 -9.632812 -83.632812 -7.9375 -80.34375 Z M -9.21875 -79.5625 "/></g></g><g style="fill:#000000;fill-opacity:1;"><g transform="translate(149.691104, 103.605154)"><path style="stroke:none" d="M 3.28125 -8.625 L 3.5 -7.5 L 1.421875 -6.796875 L 3.34375 -1.140625 L 2.09375 -0.71875 L 0.171875 -6.375 L -1.984375 -5.640625 L -2.359375 -6.71875 Z M 3.28125 -8.625 "/></g></g><g style="fill:#000000;fill-opacity:1;"><g transform="translate(162.093377, 99.896935)"><path style="stroke:none" d="M 6 -2.40625 L 6.5 -1.46875 C 6.382812 -1.34375 6.234375 -1.234375 6.046875 -1.140625 C 5.867188 -1.046875 5.675781 -0.976562 5.46875 -0.9375 C 4.726562 -0.800781 4.085938 -1.019531 3.546875 -1.59375 L 2.234375 -2.953125 C 2.097656 -3.097656 1.96875 -3.191406 1.84375 -3.234375 C 1.71875 -3.285156 1.59375 -3.296875 1.46875 -3.265625 L 1.421875 -3.265625 L 1.96875 -0.375 L 0.71875 -0.140625 L -0.609375 -7.125 L 1.5625 -7.53125 C 2.445312 -7.695312 3.15625 -7.640625 3.6875 -7.359375 C 4.21875 -7.078125 4.539062 -6.617188 4.65625 -5.984375 C 4.726562 -5.597656 4.703125 -5.25 4.578125 -4.9375 C 4.460938 -4.625 4.269531 -4.359375 4 -4.140625 C 3.738281 -3.921875 3.429688 -3.753906 3.078125 -3.640625 C 3.296875 -3.566406 3.507812 -3.421875 3.71875 -3.203125 L 4.4375 -2.484375 C 4.613281 -2.304688 4.769531 -2.191406 4.90625 -2.140625 C 5.050781 -2.085938 5.222656 -2.078125 5.421875 -2.109375 C 5.640625 -2.148438 5.832031 -2.25 6 -2.40625 Z M 1.6875 -6.46875 L 0.84375 -6.3125 L 1.234375 -4.265625 L 2.015625 -4.40625 C 2.546875 -4.507812 2.921875 -4.664062 3.140625 -4.875 C 3.367188 -5.082031 3.445312 -5.367188 3.375 -5.734375 C 3.25 -6.410156 2.6875 -6.65625 1.6875 -6.46875 Z M 1.6875 -6.46875 "/></g></g><g style="fill:#000000;fill-opacity:1;"><g transform="translate(175.465358, 97.928602)"><path style="stroke:none" d="M 0.734375 -0.046875 L 0.296875 -7.140625 L 1.59375 -7.21875 L 2.03125 -0.125 Z M 0.734375 -0.046875 "/></g></g><g style="fill:#000000;fill-opacity:1;"><g transform="translate(185.47802, 97.651653)"><path style="stroke:none" d="M 2.9375 0.265625 C 2.101562 0.210938 1.460938 -0.0078125 1.015625 -0.40625 C 0.578125 -0.8125 0.34375 -1.375 0.3125 -2.09375 L 1.546875 -2.21875 C 1.617188 -1.351562 2.125 -0.890625 3.0625 -0.828125 C 3.46875 -0.804688 3.789062 -0.867188 4.03125 -1.015625 C 4.269531 -1.160156 4.394531 -1.378906 4.40625 -1.671875 C 4.425781 -1.941406 4.328125 -2.148438 4.109375 -2.296875 C 3.890625 -2.453125 3.53125 -2.609375 3.03125 -2.765625 C 2.570312 -2.910156 2.179688 -3.070312 1.859375 -3.25 C 1.535156 -3.425781 1.289062 -3.648438 1.125 -3.921875 C 0.96875 -4.191406 0.898438 -4.546875 0.921875 -4.984375 C 0.953125 -5.410156 1.085938 -5.78125 1.328125 -6.09375 C 1.566406 -6.40625 1.878906 -6.644531 2.265625 -6.8125 C 2.660156 -6.976562 3.109375 -7.046875 3.609375 -7.015625 C 4.273438 -6.972656 4.800781 -6.765625 5.1875 -6.390625 C 5.582031 -6.015625 5.796875 -5.523438 5.828125 -4.921875 L 4.671875 -4.78125 C 4.597656 -5.488281 4.203125 -5.863281 3.484375 -5.90625 C 3.140625 -5.925781 2.847656 -5.851562 2.609375 -5.6875 C 2.378906 -5.519531 2.257812 -5.289062 2.25 -5 C 2.226562 -4.707031 2.316406 -4.476562 2.515625 -4.3125 C 2.722656 -4.144531 3.085938 -3.984375 3.609375 -3.828125 C 4.054688 -3.691406 4.4375 -3.546875 4.75 -3.390625 C 5.070312 -3.234375 5.316406 -3.019531 5.484375 -2.75 C 5.648438 -2.476562 5.722656 -2.117188 5.703125 -1.671875 C 5.671875 -1.265625 5.535156 -0.910156 5.296875 -0.609375 C 5.054688 -0.304688 4.734375 -0.078125 4.328125 0.078125 C 3.929688 0.234375 3.46875 0.296875 2.9375 0.265625 Z M 2.9375 0.265625 "/></g></g><g style="fill:#000000;fill-opacity:1;"><g transform="translate(198.470822, 98.916361)"><path style="stroke:none" d="M -0.09375 -0.015625 L 4.3125 -6.375 L 5.390625 -6.15625 L 6.8125 1.40625 L 5.515625 1.140625 L 5.203125 -0.578125 L 2.171875 -1.203125 L 1.1875 0.25 Z M 2.828125 -2.1875 L 5.015625 -1.734375 L 4.515625 -4.703125 Z M 2.828125 -2.1875 "/></g></g><g style="fill:#000000;fill-opacity:1;"><g transform="translate(212.113687, 102.279628)"><path style="stroke:none" d="M 7.546875 -4.765625 L 8.71875 -4.328125 L 6.234375 2.328125 L 5.171875 1.921875 L 3.59375 -3.953125 L 1.859375 0.6875 L 0.6875 0.25 L 3.171875 -6.40625 L 4.234375 -6 L 5.8125 -0.125 Z M 7.546875 -4.765625 "/></g></g><g style="fill:#000000;fill-opacity:1;"><g transform="translate(225.556534, 107.92058)"><path style="stroke:none" d="M 1.625 0.984375 C 1.15625 0.734375 0.8125 0.40625 0.59375 0 C 0.382812 -0.414062 0.335938 -0.859375 0.453125 -1.328125 L 1.625 -1.25 C 1.582031 -0.96875 1.601562 -0.722656 1.6875 -0.515625 C 1.769531 -0.304688 1.929688 -0.140625 2.171875 -0.015625 C 2.691406 0.265625 3.128906 0.0820312 3.484375 -0.5625 L 5.84375 -4.921875 L 7 -4.28125 L 4.703125 -0.03125 C 4.335938 0.632812 3.890625 1.054688 3.359375 1.234375 C 2.835938 1.410156 2.257812 1.328125 1.625 0.984375 Z M 1.625 0.984375 "/></g></g><g style="fill:#000000;fill-opacity:1;"><g transform="translate(235.922411, 114.102615)"><path style="stroke:none" d="M 0.59375 0.421875 L 4.6875 -5.390625 L 5.75 -4.640625 L 1.65625 1.171875 Z M 0.59375 0.421875 "/></g></g><g style="fill:#000000;fill-opacity:1;"><g transform="translate(243.898036, 120.165329)"><path style="stroke:none" d="M 9.140625 -1.3125 L 8.265625 -0.5625 L 6.625 -2.046875 L 2.609375 2.375 L 1.640625 1.484375 L 5.65625 -2.9375 L 3.96875 -4.46875 L 4.734375 -5.3125 Z M 9.140625 -1.3125 "/></g></g><g style="fill:#000000;fill-opacity:1;"><g transform="translate(253.153222, 129.293471)"><path style="stroke:none" d=""/></g></g><g style="fill:#000000;fill-opacity:1;"><g transform="translate(259.244567, 136.803294)"><path style="stroke:none" d="M 0.40625 0.609375 L 6.34375 -3.3125 L 7.5 -1.546875 C 8.269531 -0.390625 8.597656 0.644531 8.484375 1.5625 C 8.378906 2.476562 7.835938 3.257812 6.859375 3.90625 C 6.265625 4.300781 5.65625 4.515625 5.03125 4.546875 C 4.414062 4.578125 3.820312 4.4375 3.25 4.125 C 2.6875 3.8125 2.195312 3.332031 1.78125 2.6875 Z M 2.09375 1.046875 L 2.71875 2 C 3.175781 2.695312 3.691406 3.113281 4.265625 3.25 C 4.835938 3.394531 5.453125 3.25 6.109375 2.8125 C 6.785156 2.363281 7.164062 1.84375 7.25 1.25 C 7.34375 0.664062 7.132812 -0.00390625 6.625 -0.765625 L 6.09375 -1.59375 Z M 2.09375 1.046875 "/></g></g><g style="fill:#000000;fill-opacity:1;"><g transform="translate(266.835621, 149.330977)"><path style="stroke:none" d="M -0.046875 -0.078125 L 7.6875 -0.296875 L 8.140625 0.6875 L 2.90625 6.3125 L 2.34375 5.109375 L 3.546875 3.859375 L 2.265625 1.046875 L 0.515625 1.109375 Z M 3.4375 0.96875 L 4.375 3 L 6.46875 0.84375 Z M 3.4375 0.96875 "/></g></g><g style="fill:#000000;fill-opacity:1;"><g transform="translate(272.208152, 162.336598)"><path style="stroke:none" d="M 0.734375 2.84375 C 0.503906 2.050781 0.5 1.375 0.71875 0.8125 C 0.945312 0.257812 1.394531 -0.144531 2.0625 -0.40625 L 2.59375 0.6875 C 1.8125 1.0625 1.550781 1.695312 1.8125 2.59375 C 1.925781 2.988281 2.09375 3.269531 2.3125 3.4375 C 2.539062 3.613281 2.796875 3.660156 3.078125 3.578125 C 3.335938 3.503906 3.5 3.335938 3.5625 3.078125 C 3.625 2.816406 3.644531 2.429688 3.625 1.921875 C 3.601562 1.429688 3.617188 1.003906 3.671875 0.640625 C 3.734375 0.273438 3.863281 -0.0234375 4.0625 -0.265625 C 4.269531 -0.515625 4.582031 -0.703125 5 -0.828125 C 5.40625 -0.953125 5.796875 -0.953125 6.171875 -0.828125 C 6.554688 -0.710938 6.890625 -0.5 7.171875 -0.1875 C 7.460938 0.125 7.675781 0.519531 7.8125 1 C 8.007812 1.632812 8 2.203125 7.78125 2.703125 C 7.5625 3.203125 7.171875 3.578125 6.609375 3.828125 L 6.109375 2.78125 C 6.734375 2.445312 6.941406 1.9375 6.734375 1.25 C 6.640625 0.914062 6.472656 0.671875 6.234375 0.515625 C 5.992188 0.359375 5.738281 0.320312 5.46875 0.40625 C 5.1875 0.488281 5 0.65625 4.90625 0.90625 C 4.820312 1.15625 4.789062 1.546875 4.8125 2.078125 C 4.84375 2.546875 4.835938 2.957031 4.796875 3.3125 C 4.753906 3.675781 4.632812 3.976562 4.4375 4.21875 C 4.25 4.46875 3.941406 4.65625 3.515625 4.78125 C 3.117188 4.90625 2.738281 4.90625 2.375 4.78125 C 2.007812 4.65625 1.679688 4.425781 1.390625 4.09375 C 1.109375 3.769531 0.890625 3.351562 0.734375 2.84375 Z M 0.734375 2.84375 "/></g></g></g></svg>